<svg xmlns="http://www.w3.org/2000/svg" width="38.417" height="23.25" viewBox="0 0 38.417 23.25">
  <g id="Delivery" transform="translate(-16 -29)">
    <path id="Path_11" data-name="Path 11" d="M54.045,40.7l-2.965-4.94a2.718,2.718,0,0,0-2.331-1.329H44.474l.791-3.623A1.51,1.51,0,0,0,43.779,29H22.709a1.516,1.516,0,0,0-1.474,1.208l-.32,1.461a.309.309,0,0,0,.6.133l.32-1.467a.918.918,0,0,1,.87-.731h21.07a.906.906,0,0,1,.882,1.1l-.845,3.871a.338.338,0,0,0-.042.1L40.82,48.325H26.87a3.412,3.412,0,0,0-.1-.562V47.7a2.965,2.965,0,0,0-.193-.5l-.072-.079a3.7,3.7,0,0,0-.278-.447L26.17,46.6a3.019,3.019,0,0,0-.35-.386l-.06-.054a2.947,2.947,0,0,0-.417-.32l-.066-.042a3.623,3.623,0,0,0-.483-.242h-.06a3.237,3.237,0,0,0-.537-.157h-.042a3.05,3.05,0,0,0-1.208,0H22.9a3.237,3.237,0,0,0-.537.157H22.3a3.623,3.623,0,0,0-.483.242l-.066.042a2.947,2.947,0,0,0-.417.32l-.06.054a3.019,3.019,0,0,0-.35.386l-.054.066a3.7,3.7,0,0,0-.278.447l-.036.072a2.965,2.965,0,0,0-.193.5v.066a3.412,3.412,0,0,0-.139.568h-2.3L19.019,45.1a.3.3,0,1,0-.568-.193l-.755,2.21h-.223a1.208,1.208,0,0,0-1.147.827L16,48.929h4.227a3.321,3.321,0,0,0,6.643,0H43.175a3.321,3.321,0,0,0,6.643,0h3.623l.072-.223a1.208,1.208,0,0,0-.749-1.516L54.251,43A2.705,2.705,0,0,0,54.045,40.7Zm-30.5,10.641a2.718,2.718,0,1,1,2.718-2.718A2.718,2.718,0,0,1,23.549,51.344Zm22.948,0a2.718,2.718,0,1,1,2.718-2.718A2.718,2.718,0,0,1,46.5,51.344ZM53.683,42.8,51.72,48.325h-1.9a3.411,3.411,0,0,0-.1-.562V47.7a3.177,3.177,0,0,0-.193-.5l-.072-.079a4.228,4.228,0,0,0-.278-.447l-.054-.066a3.019,3.019,0,0,0-.35-.386l-.06-.06a3.425,3.425,0,0,0-.417-.314l-.066-.042a3.019,3.019,0,0,0-.483-.242h-.06a3.237,3.237,0,0,0-.537-.157H47.1a3.019,3.019,0,0,0-1.208,0h-.042a3.237,3.237,0,0,0-.537.157h-.06a3.019,3.019,0,0,0-.483.242l-.066.042a3.424,3.424,0,0,0-.417.314l-.06.06a3.019,3.019,0,0,0-.35.386l-.054.066a4.227,4.227,0,0,0-.278.447l-.036.072a3.176,3.176,0,0,0-.193.5v.066a3.412,3.412,0,0,0-.139.568H41.424l2.9-13.286h4.408a2.108,2.108,0,0,1,1.812,1.033l2.947,4.94h0a2.114,2.114,0,0,1,.187,1.788Z" transform="translate(0 0)" fill="#1c67a8"/>
    <path id="Path_12" data-name="Path 12" d="M68.14,41.761A1.51,1.51,0,0,0,66.83,41H64.511a.3.3,0,0,0-.29.217l-1.208,4.227a.32.32,0,0,0,.048.266.3.3,0,0,0,.242.121h4.559a1.507,1.507,0,0,0,1.31-2.259Zm.507,3.019a.9.9,0,0,1-.785.453H63.7L64.74,41.61H66.83a.894.894,0,0,1,.785.459l1.039,1.812a.906.906,0,0,1-.006.894Z" transform="translate(-18.618 -4.753)" fill="#1c67a8"/>
    <path id="Path_13" data-name="Path 13" d="M27.51,59a1.51,1.51,0,1,0,1.51,1.51A1.51,1.51,0,0,0,27.51,59Zm0,2.416a.906.906,0,1,1,.906-.906A.906.906,0,0,1,27.51,61.416Z" transform="translate(-3.961 -11.883)" fill="#1c67a8"/>
    <path id="Path_14" data-name="Path 14" d="M65.51,59a1.51,1.51,0,1,0,1.51,1.51A1.51,1.51,0,0,0,65.51,59Zm0,2.416a.906.906,0,1,1,.906-.906A.906.906,0,0,1,65.51,61.416Z" transform="translate(-19.013 -11.883)" fill="#1c67a8"/>
    <path id="Path_15" data-name="Path 15" d="M18.6,37.208H31.89a.6.6,0,0,0,0-1.208H18.6a.6.6,0,1,0,0,1.208Z" transform="translate(-0.792 -2.773)" fill="#1c67a8"/>
    <path id="Path_16" data-name="Path 16" d="M30.474,46.6a.6.6,0,0,0-.6-.6H19.6a.6.6,0,1,0,0,1.208H29.87A.6.6,0,0,0,30.474,46.6Z" transform="translate(-1.188 -6.734)" fill="#1c67a8"/>
    <path id="Path_17" data-name="Path 17" d="M32.078,41.6a.6.6,0,0,0-.6-.6H20.6a.6.6,0,1,0,0,1.208h10.87A.6.6,0,0,0,32.078,41.6Z" transform="translate(-1.584 -4.753)" fill="#1c67a8"/>
    <circle id="Ellipse_15" data-name="Ellipse 15" cx="0.604" cy="0.604" r="0.604" transform="translate(16.604 36.247)" fill="#1c67a8"/>
    <path id="Path_18" data-name="Path 18" d="M21.6,51a.6.6,0,1,0,0,1.208h7.851a.6.6,0,1,0,0-1.208Z" transform="translate(-1.981 -8.714)" fill="#1c67a8"/>
    <circle id="Ellipse_16" data-name="Ellipse 16" cx="0.604" cy="0.604" r="0.604" transform="translate(17.208 42.286)" fill="#1c67a8"/>
  </g>
</svg>
