<svg xmlns="http://www.w3.org/2000/svg" width="24.486" height="24.5" viewBox="0 0 24.486 24.5">
  <g id="instagram" transform="translate(-9.1 -8.87)">
    <path id="Path_28" data-name="Path 28" d="M33.574,21.115c0,1.717-.035,3.44.01,5.157a6.824,6.824,0,0,1-4.269,6.436,7.72,7.72,0,0,1-3.065.642c-3.321,0-6.648.049-9.969-.015a7.268,7.268,0,0,1-6.036-3.159A6.161,6.161,0,0,1,9.1,26.519V15.909A6.641,6.641,0,0,1,13,9.69,7.5,7.5,0,0,1,16.5,8.876c3.223,0,6.45-.02,9.673.01a7.419,7.419,0,0,1,6.13,2.991,6.176,6.176,0,0,1,1.273,3.84Zm-22.653,0v5.429a4.242,4.242,0,0,0,.607,2.255,5.458,5.458,0,0,0,4.827,2.714c3.312.049,6.628.02,9.945.01a5.4,5.4,0,0,0,2.339-.518,4.936,4.936,0,0,0,3.114-4.772c-.02-3.5,0-7.008,0-10.512a4.453,4.453,0,0,0-.869-2.7,5.517,5.517,0,0,0-4.58-2.31c-3.307-.039-6.613-.015-9.92-.01a5.826,5.826,0,0,0-2.048.39A5.056,5.056,0,0,0,10.906,16C10.966,17.71,10.921,19.413,10.921,21.115Z" transform="translate(0 0)" fill="#23599c"/>
    <path id="Path_29" data-name="Path 29" d="M146.754,144.351a5.676,5.676,0,1,1,5.745-5.68A5.717,5.717,0,0,1,146.754,144.351Zm0-1.826a3.853,3.853,0,1,0-3.933-3.854A3.888,3.888,0,0,0,146.754,142.525Z" transform="translate(-125.39 -118.004)" fill="#23599c"/>
    <path id="Path_30" data-name="Path 30" d="M364.3,98a1.26,1.26,0,1,1-1.2,1.268A1.239,1.239,0,0,1,364.3,98Z" transform="translate(-336.529 -84.732)" fill="#23599c"/>
  </g>
</svg>
