<svg xmlns="http://www.w3.org/2000/svg" width="26" height="35" viewBox="0 0 26 35">
  <g id="lock" transform="translate(-10 -1)">
    <rect id="Rectangle_68" data-name="Rectangle 68" width="26" height="35" transform="translate(10 1)" fill="none"/>
    <path id="Path_21" data-name="Path 21" d="M17.44,39.72A1.441,1.441,0,0,1,16,38.28V22.44A1.441,1.441,0,0,1,17.44,21H37.6a1.441,1.441,0,0,1,1.44,1.44V38.28a1.441,1.441,0,0,1-1.44,1.44Z" transform="translate(-4.48 -5.88)" fill="none" stroke="#1c67a8" stroke-linecap="round" stroke-miterlimit="10" stroke-width="2"/>
    <path id="Path_22" data-name="Path 22" d="M36.4,16.24V11.2a7.2,7.2,0,0,0-14.4,0v5.04" transform="translate(-6.16 -1.12)" fill="none" stroke="#1c67a8" stroke-linecap="round" stroke-miterlimit="10" stroke-width="2"/>
    <path id="Path_23" data-name="Path 23" d="M33.32,31.16a2.16,2.16,0,1,0-3.6,1.6v2a1.44,1.44,0,0,0,2.88,0v-2A2.148,2.148,0,0,0,33.32,31.16Z" transform="translate(-8.12 -8.12)" fill="#1c67a8"/>
  </g>
</svg>
