<svg xmlns="http://www.w3.org/2000/svg" width="33.141" height="33.189" viewBox="0 0 33.141 33.189">
  <g id="phone-call" transform="translate(-0.344 0)">
    <g id="Group_40" data-name="Group 40" transform="translate(0.344 0)">
      <path id="Path_24" data-name="Path 24" d="M26.55,46.046a3.264,3.264,0,0,0-2.368-1.086,3.375,3.375,0,0,0-2.4,1.079l-2.214,2.207c-.182-.1-.364-.189-.539-.28-.252-.126-.49-.245-.693-.371a24.058,24.058,0,0,1-5.765-5.254,14.193,14.193,0,0,1-1.891-2.984c.574-.525,1.107-1.072,1.625-1.6.2-.2.392-.4.588-.6a3.214,3.214,0,0,0,0-4.847L10.986,30.4c-.217-.217-.441-.441-.651-.665-.42-.434-.862-.883-1.317-1.3a3.316,3.316,0,0,0-2.347-1.03,3.431,3.431,0,0,0-2.382,1.03l-.014.014-2.382,2.4A5.125,5.125,0,0,0,.373,34.11a12.279,12.279,0,0,0,.9,5.2,30.16,30.16,0,0,0,5.359,8.938A32.964,32.964,0,0,0,17.605,56.84a17.1,17.1,0,0,0,6.164,1.821c.147.007.3.014.441.014a5.278,5.278,0,0,0,4.042-1.737c.007-.014.021-.021.028-.035a15.924,15.924,0,0,1,1.226-1.268c.3-.287.609-.588.911-.9a3.494,3.494,0,0,0,1.058-2.424,3.366,3.366,0,0,0-1.079-2.4Zm2.508,7.376c-.007,0-.007.007,0,0-.273.294-.553.56-.855.855a18.421,18.421,0,0,0-1.352,1.4,3.377,3.377,0,0,1-2.634,1.114c-.105,0-.217,0-.322-.007a15.193,15.193,0,0,1-5.464-1.639,31.116,31.116,0,0,1-10.339-8.1,28.438,28.438,0,0,1-5.043-8.4,10,10,0,0,1-.785-4.385,3.216,3.216,0,0,1,.967-2.08L5.62,29.795a1.592,1.592,0,0,1,1.065-.5,1.5,1.5,0,0,1,1.023.49l.021.021c.427.4.834.813,1.261,1.254.217.224.441.448.665.679l1.912,1.912a1.337,1.337,0,0,1,0,2.171c-.2.2-.4.406-.6.6-.588.6-1.149,1.163-1.758,1.709-.014.014-.028.021-.035.035a1.429,1.429,0,0,0-.364,1.59l.021.063a15.353,15.353,0,0,0,2.263,3.692l.007.007a25.71,25.71,0,0,0,6.22,5.66,9.565,9.565,0,0,0,.862.469c.252.126.49.245.693.371.028.014.056.035.084.049a1.518,1.518,0,0,0,.693.175,1.5,1.5,0,0,0,1.065-.483l2.4-2.4a1.585,1.585,0,0,1,1.058-.525,1.427,1.427,0,0,1,1.009.511l.014.014,3.86,3.86A1.385,1.385,0,0,1,29.058,53.422Z" transform="translate(-0.344 -25.486)" fill="#1c67a8"/>
      <path id="Path_25" data-name="Path 25" d="M245.722,87.8a9.015,9.015,0,0,1,7.341,7.341.94.94,0,0,0,.932.785,1.251,1.251,0,0,0,.161-.014.947.947,0,0,0,.778-1.093,10.9,10.9,0,0,0-8.882-8.882.951.951,0,0,0-1.093.771A.935.935,0,0,0,245.722,87.8Z" transform="translate(-227.81 -79.906)" fill="#1c67a8"/>
      <path id="Path_26" data-name="Path 26" d="M264.5,14.641A17.949,17.949,0,0,0,249.874.015a.944.944,0,1,0-.308,1.863,16.033,16.033,0,0,1,13.071,13.071.94.94,0,0,0,.932.785,1.251,1.251,0,0,0,.161-.014A.928.928,0,0,0,264.5,14.641Z" transform="translate(-231.373 0)" fill="#1c67a8"/>
    </g>
  </g>
</svg>
