<svg xmlns="http://www.w3.org/2000/svg" width="46.435" height="46.493" viewBox="0 0 46.435 46.493">
  <g id="Layer_2" transform="translate(-87.9 -87.667)">
    <g id="Group_39" data-name="Group 39" transform="translate(87.9 87.667)">
      <path id="Path_19" data-name="Path 19" d="M111.137,134.16a23.234,23.234,0,0,0,23.2-22.063,1.038,1.038,0,1,0-2.072-.111,21.161,21.161,0,1,1-9.809-18.955l-2.335,2.86,6.7-.677-.677-6.7-2.362,2.9a23.239,23.239,0,1,0-12.641,42.745Z" transform="translate(-87.9 -87.667)" fill="#1c67a8"/>
      <path id="Path_20" data-name="Path 20" d="M198.366,175.981c0-.014,0-.028-.014-.028,0-.028-.014-.041-.014-.069s-.014-.041-.014-.055-.014-.028-.014-.041a.744.744,0,0,0-.1-.18h0l-4.393-6.452a1.02,1.02,0,0,0-.857-.456H181.829a1.02,1.02,0,0,0-.857.456l-4.393,6.438h0a1.142,1.142,0,0,0-.1.18c0,.014-.014.028-.014.041a.083.083,0,0,0-.014.055c0,.028-.014.041-.014.069s0,.028-.014.028a1.066,1.066,0,0,0-.028.207h0v15.6a1.044,1.044,0,0,0,1.036,1.036h19.908a1.044,1.044,0,0,0,1.036-1.036V176.188h0A.914.914,0,0,0,198.366,175.981Zm-15.984-5.208h10.03l2.97,4.366H179.4Zm13.926,19.977H178.486V177.224h17.836v13.525Z" transform="translate(-164.173 -157.505)" fill="#1c67a8"/>
    </g>
  </g>
</svg>
