<svg xmlns="http://www.w3.org/2000/svg" width="30.448" height="24.816" viewBox="0 0 30.448 24.816">
  <g id="twitter" transform="translate(-2.6 -79.529)">
    <path id="Path_27" data-name="Path 27" d="M2.6,101.551a12.724,12.724,0,0,0,9.187-2.594,7.222,7.222,0,0,1-1.939-.366,6.158,6.158,0,0,1-3.513-3.074c-.108-.21-.2-.438-.3-.654s0-.258.2-.228a6.433,6.433,0,0,0,2.324-.084c.018-.006.03-.024.048-.036.012-.084-.054-.1-.108-.108a6.118,6.118,0,0,1-3.939-2.99,5.9,5.9,0,0,1-.8-2.822c-.006-.258.066-.288.282-.186a6.073,6.073,0,0,0,2.5.63,7.965,7.965,0,0,1-1.189-1.075,6.178,6.178,0,0,1-1.5-5,6.467,6.467,0,0,1,.618-1.993c.114-.234.2-.264.372-.054a17.143,17.143,0,0,0,3.464,3.158,17.771,17.771,0,0,0,3.08,1.717,18.125,18.125,0,0,0,4.359,1.261c.5.078,1.015.1,1.519.156.234.024.27-.066.228-.276a5.958,5.958,0,0,1,.486-3.771,6.066,6.066,0,0,1,4.389-3.482,6.168,6.168,0,0,1,5.38,1.357c.51.769,1.153.318,1.735.156a13.856,13.856,0,0,0,2.66-1.111,6.208,6.208,0,0,1-2.51,3.308,11.261,11.261,0,0,0,3.4-.895,11.555,11.555,0,0,1-.937,1.243,12.1,12.1,0,0,1-1.969,1.831.424.424,0,0,0-.186.4,17.944,17.944,0,0,1-.294,3.759,18.68,18.68,0,0,1-3.3,7.6,17.319,17.319,0,0,1-3.885,3.837,16.908,16.908,0,0,1-6.7,2.846,19.234,19.234,0,0,1-4.623.306,17.548,17.548,0,0,1-3.543-.546A16.934,16.934,0,0,1,3.459,102.1,3.6,3.6,0,0,1,2.6,101.551Z" transform="translate(0 0)" fill="#23599c"/>
  </g>
</svg>
